<?xml version="1.0" standalone="no"?>
<!DOCTYPE svg PUBLIC "-//W3C//DTD SVG 20010904//EN"
 "http://www.w3.org/TR/2001/REC-SVG-20010904/DTD/svg10.dtd">
<svg version="1.0" xmlns="http://www.w3.org/2000/svg"
 width="512.000000pt" height="512.000000pt" viewBox="0 0 512.000000 512.000000"
 preserveAspectRatio="xMidYMid meet">
<metadata>
Created by potrace 1.11, written by Peter Selinger 2001-2013
</metadata>
<g transform="translate(0.000000,512.000000) scale(0.100000,-0.100000)"
fill="#000000" stroke="none">
<path d="M1047 4484 c-1 -1 -24 -5 -52 -8 -409 -54 -722 -318 -829 -701 -35
-124 -44 -189 -44 -335 0 -151 10 -218 54 -373 67 -236 214 -531 415 -833 77
-116 286 -383 398 -509 50 -55 406 -411 461 -460 240 -213 545 -442 779 -584
72 -44 92 -51 135 -51 62 0 85 12 271 135 312 206 584 428 869 708 l99 98 81
-80 c321 -316 622 -557 991 -793 104 -66 148 -78 214 -57 133 42 163 231 49
305 -424 275 -657 457 -950 743 l-148 143 20 27 c11 14 60 78 110 141 295 373
530 812 604 1125 40 171 48 282 33 450 -15 161 -67 321 -145 449 -61 101 -133
180 -226 249 -117 88 -229 142 -366 177 -440 112 -914 -63 -1131 -417 -65
-106 -106 -211 -135 -345 -26 -125 -26 -380 1 -498 3 -14 7 -37 10 -51 9 -51
73 -236 114 -328 59 -137 159 -316 267 -480 82 -124 227 -326 244 -341 3 -3
32 -37 64 -77 46 -58 55 -75 48 -90 -10 -17 -150 -155 -277 -273 -174 -160
-416 -349 -632 -493 -64 -43 -74 -47 -95 -36 -21 10 -261 177 -298 205 -8 7
-62 50 -120 95 -239 188 -568 498 -554 522 5 6 35 46 69 87 127 156 322 432
381 540 10 19 24 42 30 50 25 32 133 250 172 345 109 270 144 483 117 729 -55
523 -459 880 -1008 890 -48 1 -89 1 -90 0z m291 -380 c208 -60 349 -188 418
-379 44 -121 57 -253 41 -402 -29 -250 -232 -658 -513 -1028 -38 -50 -85 -112
-104 -138 -19 -25 -40 -46 -46 -47 -6 0 -44 42 -83 93 -40 50 -78 99 -84 107
-86 107 -274 418 -339 559 -65 140 -69 150 -89 209 -54 156 -64 219 -63 377 1
140 15 214 62 320 82 190 279 328 502 352 30 3 56 6 58 8 11 9 170 -11 240
-31z m2399 16 c197 -32 369 -159 452 -333 55 -117 74 -207 74 -357 0 -192 -74
-417 -240 -725 -20 -38 -40 -72 -44 -75 -3 -3 -12 -16 -19 -30 -37 -72 -252
-375 -331 -467 l-27 -32 -69 87 c-113 143 -127 162 -215 292 -118 175 -212
345 -281 505 -29 68 -73 197 -81 235 -2 14 -9 45 -15 70 -17 74 -6 293 18 378
98 337 399 512 778 452z"/>
</g>
</svg>
